HIERARCHY
ROOT Hips
{
 OFFSET 0.000000 0.000000 0.000000
 CHANNELS 6 Xposition Yposition Zposition Yrotation Xrotation Zrotation
 JOINT Chest
 {
  OFFSET 0.000000 10.354800 0.006500
  CHANNELS 3 Yrotation Xrotation Zrotation
  JOINT Chest2
  {
   OFFSET 0.000000 10.435800 -0.013200
   CHANNELS 3 Yrotation Xrotation Zrotation
   JOINT Chest3
   {
    OFFSET 0.000000 10.393700 0.000000
    CHANNELS 3 Yrotation Xrotation Zrotation
    JOINT Chest4
    {
     OFFSET 0.000000 10.383100 0.000000
     CHANNELS 3 Yrotation Xrotation Zrotation
     JOINT Neck
     {
      OFFSET 0.000000 15.694000 0.000000
      CHANNELS 3 Yrotation Xrotation Zrotation
      JOINT Head
      {
       OFFSET 0.000000 9.711000 -0.028000
       CHANNELS 3 Yrotation Xrotation Zrotation
       End Site
       {
        OFFSET 0.000000 18.578700 -0.014800
       }
      }
     }
     JOINT RightCollar
     {
      OFFSET -3.157200 10.367500 0.000000
      CHANNELS 3 Yrotation Xrotation Zrotation
      JOINT RightShoulder
      {
       OFFSET -14.482500 0.000000 0.000000
       CHANNELS 3 Yrotation Xrotation Zrotation
       JOINT RightElbow
       {
        OFFSET 0.000000 -31.707800 0.000000
        CHANNELS 3 Yrotation Xrotation Zrotation
        JOINT RightWrist
        {
         OFFSET 0.000000 -25.659300 0.000000
         CHANNELS 3 Yrotation Xrotation Zrotation
         End Site
         {
          OFFSET 0.000000 -18.994300 0.000000
         }
        }
       }
      }
     }
     JOINT LeftCollar
     {
      OFFSET 3.157200 10.367500 0.000000
      CHANNELS 3 Yrotation Xrotation Zrotation
      JOINT LeftShoulder
      {
       OFFSET 14.482500 0.000000 0.000000
       CHANNELS 3 Yrotation Xrotation Zrotation
       JOINT LeftElbow
       {
        OFFSET 0.000000 -31.707800 0.000000
        CHANNELS 3 Yrotation Xrotation Zrotation
        JOINT LeftWrist
        {
         OFFSET 0.000000 -25.659300 0.000000
         CHANNELS 3 Yrotation Xrotation Zrotation
         End Site
         {
          OFFSET 0.000000 -18.994300 0.000000
         }
        }
       }
      }
     }
    }
   }
  }
 }
 JOINT RightHip
 {
  OFFSET -8.365600 -0.032100 -0.003200
  CHANNELS 3 Yrotation Xrotation Zrotation
  JOINT RightKnee
  {
   OFFSET 0.000000 -43.980000 0.003100
   CHANNELS 3 Yrotation Xrotation Zrotation
   JOINT RightAnkle
   {
    OFFSET 0.000000 -42.882800 0.005200
    CHANNELS 3 Yrotation Xrotation Zrotation
    JOINT RightToe
    {
     OFFSET 0.000000 -4.915500 10.826300
     CHANNELS 3 Yrotation Xrotation Zrotation
     End Site
     {
      OFFSET 0.000000 -1.517500 6.175900
     }
    }
   }
  }
 }
 JOINT LeftHip
 {
  OFFSET 8.365600 -0.032100 -0.003200
  CHANNELS 3 Yrotation Xrotation Zrotation
  JOINT LeftKnee
  {
   OFFSET 0.000000 -43.980000 0.003100
   CHANNELS 3 Yrotation Xrotation Zrotation
   JOINT LeftAnkle
   {
    OFFSET 0.000000 -42.882800 0.005200
    CHANNELS 3 Yrotation Xrotation Zrotation
    JOINT LeftToe
    {
     OFFSET 0.000000 -4.915500 10.826300
     CHANNELS 3 Yrotation Xrotation Zrotation
     End Site
     {
      OFFSET 0.000000 -1.517500 6.175900
     }
    }
   }
  }
 }
}
MOTION
Frames: 15
Frame Time: 0.008333
0.000000 91.618600 0.000000 0.000000 -5.767877 0.000000 0.000000 11.653817 0.000000 0.000000 -5.885947 0.000000 0.000000 -0.000000 0.000000 0.000000 -0.000000 0.000000 0.000000 12.528835 0.000000 0.000000 0.711642 0.000000 0.000000 -0.000000 0.000000 0.000000 0.000000 -90.000000 0.000000 -2.309062 0.000000 0.000000 2.309062 0.000000 0.000000 -0.000000 0.000000 0.000000 -0.000000 90.000000 0.000000 -2.309062 0.000000 0.000000 2.309062 0.000000 0.000000 8.520406 0.000000 0.000000 1.905762 0.000000 -0.000000 -4.658285 0.000000 0.000000 -0.000000 0.000000 0.000000 8.520406 0.000000 0.000000 1.905762 0.000000 -0.000000 -4.658285 0.000000 0.000000 -0.000000 0.000000
-10.478837 147.275646 13.183451 175.778420 -23.045968 -3.320597 -0.961426 11.380874 4.024701 -0.099447 0.828236 0.312055 -0.167378 1.416326 0.532580 -0.925274 10.347115 3.821747 -1.811167 21.829734 -4.163048 -1.017230 -2.313132 -4.067469 4.080470 4.216816 -4.058740 20.132110 -15.828261 -11.232036 44.960485 -39.254747 -27.893822 -3.855877 -4.727207 -13.295886 -2.641275 6.387941 1.118812 -9.905721 -17.967852 0.197172 -50.187097 -33.068293 39.969249 -7.762593 2.953465 11.748567 6.201686 -55.049043 -0.181397 -151.632443 76.151566 -145.997914 0.437105 -24.589653 1.449006 -0.049865 -0.093465 -0.046439 -10.860592 -53.687176 12.386916 151.298285 76.395194 146.405836 -2.544030 -24.655918 0.279502 0.086256 0.136709 0.024152
-9.068503 140.756637 13.047444 175.787172 -23.047819 -3.354940 -0.956046 11.354536 4.080027 -0.103054 0.839881 0.301443 -0.166176 1.415072 0.530998 -0.917873 10.344876 3.813628 -1.811678 21.804187 -4.150455 -1.025456 -2.303679 -4.064173 4.068226 4.226691 -4.087558 20.029964 -15.689021 -11.201681 44.905398 -39.450656 -27.789957 -3.948197 -4.937423 -13.459594 -2.616744 6.391972 1.115424 -9.716527 -17.662498 0.143642 -50.462462 -33.398503 40.147160 -7.728970 2.873957 11.824260 6.131005 -55.070404 -0.131152 -151.698215 76.142893 -146.054423 0.414105 -24.632081 1.427993 -0.021774 -0.040565 -0.009879 -10.934730 -53.672428 12.436640 151.202273 76.399930 146.314073 -2.559641 -24.588330 0.304068 0.013394 0.064526 0.006085
-7.907191 135.388181 12.936152 175.803406 -23.050564 -3.380569 -0.965880 11.354286 4.103058 -0.098266 0.826861 0.310367 -0.148202 1.392814 0.537023 -0.931173 10.362375 3.800196 -1.819939 21.801399 -4.147581 -1.027420 -2.316928 -4.057672 4.065144 4.237953 -4.116272 19.932842 -15.557034 -11.177812 44.812063 -39.645881 -27.655077 -4.033617 -5.144304 -13.632045 -2.542659 6.385783 1.090554 -9.585925 -17.370616 0.111066 -50.764409 -33.636515 40.343667 -7.615547 2.767935 11.893930 6.039002 -55.094986 -0.072213 -151.771341 76.127265 -146.144658 0.410520 -24.640501 1.418679 -0.014556 -0.029501 -0.006606 -10.999368 -53.663951 12.448409 150.987389 76.403354 146.130590 -2.484197 -24.545452 0.240247 0.023363 0.042151 0.010614
-7.065545 131.511650 12.856205 175.821168 -23.059796 -3.410533 -0.964796 11.344863 4.137210 -0.097500 0.825870 0.309784 -0.141733 1.392438 0.537127 -0.928849 10.357309 3.794908 -1.835993 21.800977 -4.140686 -1.029662 -2.370323 -4.039711 4.057578 4.253589 -4.137737 19.837160 -15.433513 -11.160681 44.690075 -39.841320 -27.491433 -4.117350 -5.346256 -13.814272 -2.517172 6.407474 1.080848 -9.423025 -17.131770 0.071059 -50.943892 -33.932471 40.442286 -7.603784 2.681103 11.986273 5.967685 -55.099572 -0.023127 -151.815702 76.119750 -146.187984 0.406011 -24.664039 1.408217 -0.004933 -0.007470 -0.002239 -11.061197 -53.650573 12.466537 150.851140 76.402796 146.016997 -2.397293 -24.502916 0.186837 0.014418 0.016353 0.006548
-6.535389 129.064275 12.804846 175.840979 -23.080787 -3.415875 -0.963544 11.346970 4.148641 -0.097188 0.825318 0.309061 -0.136091 1.390995 0.535689 -0.930727 10.355158 3.789615 -1.841714 21.774360 -4.129382 -1.038231 -2.402160 -4.025700 4.053912 4.269525 -4.155386 19.773719 -15.375434 -11.142734 44.501011 -39.977735 -27.265841 -4.202397 -5.544164 -14.005000 -2.503354 6.431840 1.075724 -9.255857 -16.925764 0.034216 -51.122778 -34.178176 40.531351 -7.547167 2.589200 12.074400 5.944137 -55.083187 -0.023222 -151.840987 76.114523 -146.202818 0.407787 -24.673850 1.396496 0.000044 0.000649 0.000020 -11.075918 -53.631393 12.445144 150.786456 76.407573 145.968895 -2.367204 -24.485374 0.160652 0.016871 0.012566 0.007661
-6.244073 127.719072 12.776597 175.862781 -23.105837 -3.411169 -0.961232 11.352324 4.148340 -0.066435 0.803750 0.318625 -0.161463 1.410156 0.526372 -0.930974 10.353610 3.785303 -1.851118 21.745733 -4.120266 -1.044683 -2.503142 -4.004899 4.034106 4.288149 -4.161340 19.689639 -15.243901 -11.153038 44.356114 -40.188584 -27.084593 -4.286528 -5.731089 -14.198954 -2.522431 6.454008 1.074888 -9.072266 -16.749342 0.000870 -51.363926 -34.330032 40.658411 -7.384371 2.497297 12.138925 5.917324 -55.062900 -0.032810 -151.879965 76.109969 -146.239836 0.411503 -24.679456 1.383950 0.002126 0.003340 0.000965 -11.073934 -53.612372 12.401646 150.726898 76.410184 145.923184 -2.343568 -24.469318 0.141571 0.019731 0.010626 0.008960
-6.104924 127.078946 12.764608 175.879427 -23.126154 -3.402212 -0.920580 11.325974 4.164348 -0.111349 0.836221 0.302734 -0.143400 1.397539 0.530664 -0.877099 10.330992 3.788479 -1.878800 21.682613 -4.102218 -1.083704 -2.510296 -3.986175 3.982302 4.331900 -4.171815 19.584293 -15.136762 -11.163970 44.202217 -40.392783 -26.886117 -4.364392 -5.893605 -14.385964 -2.559720 6.508037 1.069672 -8.953423 -16.620670 -0.005010 -51.467750 -34.534768 40.676354 -7.337874 2.424519 12.212117 5.910282 -55.050263 -0.057000 -151.943499 76.105221 -146.296499 0.416036 -24.680886 1.372899 0.002714 0.002137 0.001232 -11.062686 -53.604399 12.340439 150.622043 76.400769 145.832279 -2.286525 -24.454646 0.114215 0.020762 0.007960 0.009428
-6.048964 126.817668 12.760822 175.895690 -23.146754 -3.383509 -0.908901 11.319579 4.155696 -0.127345 0.850806 0.296228 -0.124425 1.381383 0.535640 -0.878224 10.335834 3.783696 -1.879419 21.646216 -4.092730 -1.100355 -2.545421 -3.971762 3.987676 4.361866 -4.184783 19.491639 -15.068552 -11.182852 44.040399 -40.568618 -26.676568 -4.439232 -6.018737 -14.546066 -2.493475 6.546975 1.049780 -8.919948 -16.535073 0.026274 -51.513638 -34.696609 40.656527 -7.295958 2.339702 12.278307 5.920237 -55.034204 -0.099137 -152.009438 76.103184 -146.359111 0.415391 -24.684016 1.370411 0.001223 0.001220 0.000555 -11.031475 -53.595000 12.263689 150.531177 76.397234 145.759760 -2.316584 -24.448836 0.122569 0.016101 0.006028 0.007311
-6.028441 126.726950 12.762405 175.904020 -23.159489 -3.369458 -0.889512 11.304214 4.155661 -0.093030 0.822830 0.306825 -0.156434 1.407355 0.523873 -0.902612 10.354985 3.775308 -1.855246 21.598211 -4.082565 -1.115562 -2.579029 -3.955684 4.016639 4.382266 -4.194109 19.418510 -15.002585 -11.222568 43.876473 -40.746065 -26.481657 -4.507472 -6.100252 -14.661865 -2.429043 6.563524 1.030103 -8.896632 -16.479361 0.068329 -51.529240 -34.823181 40.610860 -7.246177 2.263526 12.353010 5.926321 -55.024047 -0.126090 -152.048048 76.102613 -146.400036 0.420214 -24.686310 1.372105 -0.002674 0.002462 -0.001214 -11.004961 -53.593634 12.199644 150.441380 76.388741 145.684208 -2.319583 -24.443646 0.122227 0.011023 0.004930 0.005005
-6.022131 126.701120 12.764768 175.912162 -23.176145 -3.352875 -0.870085 11.293635 4.153187 -0.101339 0.828820 0.303191 -0.145518 1.399322 0.525599 -0.887381 10.351514 3.772166 -1.871207 21.571049 -4.070101 -1.130024 -2.611095 -3.938055 4.016819 4.419978 -4.197964 19.353301 -14.936465 -11.277159 43.708531 -40.925700 -26.300504 -4.557063 -6.134920 -14.727208 -2.422023 6.589198 1.012655 -8.893531 -16.454002 0.122110 -51.493904 -34.904595 40.541486 -7.195104 2.172638 12.433221 5.932786 -55.006832 -0.155486 -152.108344 76.101769 -146.457080 0.420022 -24.697083 1.365141 -0.002622 0.004285 -0.001190 -10.951774 -53.591831 12.099656 150.292004 76.368331 145.558358 -2.295057 -24.439667 0.113020 0.000074 0.003668 0.000034
-6.019662 126.695929 12.766788 175.928280 -23.197198 -3.341564 -0.851657 11.287425 4.154481 -0.130938 0.847894 0.293247 -0.113312 1.377555 0.533184 -0.834173 10.317227 3.770758 -1.928898 21.572315 -4.051980 -1.148010 -2.641053 -3.918437 3.949911 4.479219 -4.189369 19.328649 -14.868623 -11.348298 43.552048 -41.100383 -26.139811 -4.585733 -6.120775 -14.748017 -2.474529 6.637947 1.002098 -8.903684 -16.463808 0.188637 -51.428633 -34.953096 40.429640 -7.142308 2.086391 12.539348 5.930309 -54.986213 -0.190314 -152.171729 76.097683 -146.509479 0.431670 -24.704948 1.350426 -0.001495 0.002327 -0.000679 -10.927013 -53.576493 12.043722 150.236722 76.369459 145.514045 -2.274159 -24.433939 0.100280 0.005129 0.003863 0.002329
-6.019539 126.695887 12.768823 175.946818 -23.217527 -3.324207 -0.828861 11.280022 4.151736 -0.138897 0.845841 0.290829 -0.103475 1.376578 0.533565 -0.826901 10.311534 3.765693 -1.957315 21.560659 -4.040343 -1.163385 -2.684098 -3.898087 3.924094 4.510993 -4.186970 19.314064 -14.804659 -11.427784 43.427718 -41.262062 -26.011774 -4.594923 -6.064637 -14.732326 -2.517472 6.663907 0.998811 -8.911306 -16.517841 0.264980 -51.334247 -34.974345 40.223925 -7.104156 2.024312 12.707504 5.946549 -54.964017 -0.237853 -152.211395 76.089110 -146.538200 0.434170 -24.713982 1.346223 0.002231 0.002335 0.001013 -10.894364 -53.560820 11.982048 150.208856 76.375766 145.494870 -2.316251 -24.429766 0.119123 0.001307 0.003108 0.000593
-6.021778 126.696703 12.771105 175.987185 -23.233670 -3.303881 -0.822870 11.270574 4.140828 -0.090023 0.818708 0.304082 -0.178666 1.413032 0.511294 -0.792111 10.294127 3.769094 -2.009810 21.573748 -4.036947 -1.169765 -2.754472 -3.877391 3.983833 4.544854 -4.192959 19.207321 -14.751839 -11.500686 43.357280 -41.406320 -25.924559 -4.584809 -5.974701 -14.686556 -2.533307 6.669066 0.969261 -9.004068 -16.587109 0.400068 -51.257826 -34.972140 40.021327 -7.061524 2.021043 12.859325 5.972632 -54.941779 -0.325005 -152.299843 76.087682 -146.611864 0.438116 -24.722677 1.339932 0.002091 0.001743 0.000950 -10.872180 -53.550362 11.903554 150.158559 76.380751 145.454421 -2.393537 -24.425440 0.146164 -0.008902 0.001101 -0.004042
-6.024970 126.697788 12.773254 176.024525 -23.250109 -3.277676 -0.812283 11.262234 4.126629 -0.089505 0.817726 0.303607 -0.164939 1.404762 0.514029 -0.800536 10.295357 3.762856 -2.035761 21.546502 -4.026622 -1.205054 -2.762315 -3.860171 4.011814 4.570147 -4.200612 19.128488 -14.704469 -11.582812 43.352596 -41.529817 -25.885397 -4.562993 -5.858270 -14.614627 -2.542118 6.661218 0.900805 -9.178174 -16.671021 0.613231 -51.165468 -34.942538 39.793763 -7.024223 2.054291 13.017203 6.040164 -54.916719 -0.462062 -152.453381 76.088736 -146.731320 0.454145 -24.735183 1.330113 -0.003960 0.001460 -0.001798 -10.858888 -53.535511 11.834986 150.072578 76.384759 145.369175 -2.456478 -24.416260 0.157568 -0.015606 -0.001440 -0.007085
